<?plantuml 1.2026.2?><svg xmlns="http://www.w3.org/2000/svg" xmlns:xlink="http://www.w3.org/1999/xlink" contentStyleType="text/css" data-diagram-type="DESCRIPTION" height="461px" preserveAspectRatio="none" style="width:766px;height:461px;background:#FFFFFF;" version="1.1" viewBox="0 0 766 461" width="766px" zoomAndPan="magnify"><title>Why we use this: beads (task DB) synced across sessions</title><defs/><g><g class="title" data-source-line="1"><text fill="#000000" font-family="'Helvetica'" font-size="14" font-weight="bold" lengthAdjust="spacing" textLength="453.5918" x="149.4764" y="22.9951">Why we use this: beads (task DB) synced across sessions</text></g><!--cluster STORE--><g class="cluster" data-qualified-name="STORE" data-source-line="16" id="ent0002"><path d="M310.9545,202.9993 C314.0409,195.4611 320.7611,196.9567 324.5743,202.2264 C329.3845,192.7228 335.019,194.119 341.2138,200.8032 C345.2524,193.2279 352.55,192.4913 356.8958,200.4939 C358.945,193.0562 365.2158,191.5906 370.4718,197.1422 C375.1607,189.445 381.3609,188.3689 386.6434,196.5371 C389.9394,189.1652 396.7081,190.3238 400.5854,195.9117 C405.5672,188.8869 410.8979,186.5986 416.6934,195.0656 C421.161,188.8845 428.1664,188.1028 431.4135,196.314 C435.9496,187.2693 443.3558,188.1299 448.2659,195.9402 C453.167,190.7683 458.6154,191.1226 461.7516,197.9274 C466.9836,190.3129 475.3146,191.7678 479.0572,199.5965 C483.2593,192.1608 490.9712,191.4321 494.9988,199.7728 C500.89,193.0315 506.0793,192.7397 510.1887,201.5169 C519.1522,195.238 527.4229,195.4365 529.97,208.1869 C531.2614,207.3472 532.5931,207.6884 532.6583,209.4527 C541.8164,214.2541 542.821,222.2295 533.8209,228.1593 C542.9281,230.3253 543.2107,237.555 537.6887,243.427 C546.797,249.6519 547.1258,255.4349 538.1236,262.0821 C546.2536,267.6408 546.7769,275.3204 537.8146,280.5939 C543.8087,286.8567 544.1884,295.049 533.8557,297.4853 C541.6235,309.6807 538.9447,319.6831 522.97,320.7869 C524.0462,319.5553 524.9604,319.4685 525.827,321.0033 C522.6075,329.631 515.9068,331.3296 509.684,324.0513 C504.8555,332.8214 498.272,333.0144 493.3707,324.1185 C491.239,332.5 485.1926,333.6457 479.2397,327.9559 C474.5928,336.2511 467.5098,334.5407 462.9474,327.8639 C460.2621,335.7538 454.8301,336.8473 449.0019,331.0711 C443.0099,338.235 437.4782,337.5777 432.7881,329.6705 C430.1404,338.7283 422.2416,339.8246 416.1671,333.3335 C410.7789,341.4644 404.1688,341.1012 400.2481,331.9794 C395.8971,337.7462 389.4031,336.6589 387.2039,329.7628 C382.0591,337.334 374.8558,337.1469 370.6359,328.8001 C365.6668,334.0417 359.357,332.9644 356.5124,326.2835 C351.0869,332.9554 345.1391,332.5191 340.731,325.1407 C335.3531,330.9701 330.2257,332.0247 325.7589,324.1457 C312.7314,333.479 304.1014,328.1351 300.97,313.7869 C302.4834,314.3581 302.9624,315.4639 301.6389,316.689 C292.8519,311.3271 292.5973,304.9302 300.5241,298.5417 C289.4497,294.3105 288.2422,286.202 297.2731,278.6799 C286.9828,276.46 285.049,271.1513 291.6229,262.8949 C283.9716,255.1786 284.2761,248.7252 295.3708,244.917 C287.8679,237.9457 290.1259,231.1816 299.6485,228.7018 C289.502,216.9115 294.0378,205.6949 307.97,201.1869 C309.7122,200.1233 310.9694,201.1695 310.9545,202.9993" fill="#FFF8D6" style="stroke:#C0A02E;stroke-width:1;"/><text fill="#000000" font-family="'Helvetica'" font-size="14" font-weight="bold" lengthAdjust="spacing" textLength="213.876" x="308.532" y="219.182">idvorkin-ai-tools/&lt;project&gt;</text><text fill="#000000" font-family="'Helvetica'" font-size="14" font-weight="bold" lengthAdjust="spacing" textLength="139.002" x="345.969" y="235.4789">(the only remote)</text></g><!--entity REF--><g class="entity" data-qualified-name="STORE.REF" data-source-line="17" id="ent0003"><rect fill="#C4E2AC" height="52.5938" rx="4" ry="4" style="stroke:#666666;stroke-width:0.5;" width="177.7734" x="317.09" y="252.1869"/><text fill="#000000" font-family="'Helvetica'" font-size="14" lengthAdjust="spacing" textLength="94.3906" x="327.09" y="275.182">refs/dolt/data</text><text fill="#000000" font-family="'Helvetica'" font-size="14" lengthAdjust="spacing" textLength="157.7734" x="327.09" y="291.4789">shared issue database</text></g><!--entity A--><g class="entity" data-qualified-name="A" data-source-line="20" id="ent0004"><polygon fill="#EAF3FF" points="16,53.2969,26,43.2969,211.9482,43.2969,211.9482,112.1875,201.9482,122.1875,16,122.1875,16,53.2969" style="stroke:#181818;stroke-width:0.5;"/><line style="stroke:#181818;stroke-width:0.5;" x1="201.9482" x2="211.9482" y1="53.2969" y2="43.2969"/><line style="stroke:#181818;stroke-width:0.5;" x1="16" x2="201.9482" y1="53.2969" y2="53.2969"/><line style="stroke:#181818;stroke-width:0.5;" x1="201.9482" x2="201.9482" y1="53.2969" y2="122.1875"/><text fill="#000000" font-family="'Helvetica'" font-size="14" lengthAdjust="spacing" textLength="67.4434" x="31" y="76.292">Session A</text><text fill="#000000" font-family="'Helvetica'" font-size="14" lengthAdjust="spacing" textLength="155.9482" x="31" y="92.5889">(macbook, terminal 1)</text><text fill="#000000" font-family="'Helvetica'" font-size="14" lengthAdjust="spacing" textLength="103.373" x="31" y="108.8857">bd close bd-42</text></g><!--entity B--><g class="entity" data-qualified-name="B" data-source-line="21" id="ent0005"><polygon fill="#EAF3FF" points="251.8,53.2969,261.8,43.2969,440.1467,43.2969,440.1467,112.1875,430.1467,122.1875,251.8,122.1875,251.8,53.2969" style="stroke:#181818;stroke-width:0.5;"/><line style="stroke:#181818;stroke-width:0.5;" x1="430.1467" x2="440.1467" y1="53.2969" y2="43.2969"/><line style="stroke:#181818;stroke-width:0.5;" x1="251.8" x2="430.1467" y1="53.2969" y2="53.2969"/><line style="stroke:#181818;stroke-width:0.5;" x1="430.1467" x2="430.1467" y1="53.2969" y2="122.1875"/><text fill="#000000" font-family="'Helvetica'" font-size="14" lengthAdjust="spacing" textLength="67.4707" x="266.8" y="76.292">Session B</text><text fill="#000000" font-family="'Helvetica'" font-size="14" lengthAdjust="spacing" textLength="143.8008" x="266.8" y="92.5889">(dev VM, terminal 2)</text><text fill="#000000" font-family="'Helvetica'" font-size="14" lengthAdjust="spacing" textLength="148.3467" x="266.8" y="108.8857">bd create 'review PR'</text></g><!--entity C--><g class="entity" data-qualified-name="C" data-source-line="22" id="ent0006"><polygon fill="#EAF3FF" points="538.4,53.2969,548.4,43.2969,749.5445,43.2969,749.5445,112.1875,739.5445,122.1875,538.4,122.1875,538.4,53.2969" style="stroke:#181818;stroke-width:0.5;"/><line style="stroke:#181818;stroke-width:0.5;" x1="739.5445" x2="749.5445" y1="53.2969" y2="43.2969"/><line style="stroke:#181818;stroke-width:0.5;" x1="538.4" x2="739.5445" y1="53.2969" y2="53.2969"/><line style="stroke:#181818;stroke-width:0.5;" x1="739.5445" x2="739.5445" y1="53.2969" y2="122.1875"/><text fill="#000000" font-family="'Helvetica'" font-size="14" lengthAdjust="spacing" textLength="67.6416" x="553.4" y="76.292">Session C</text><text fill="#000000" font-family="'Helvetica'" font-size="14" lengthAdjust="spacing" textLength="171.1445" x="553.4" y="92.5889">(laptop, offline &#8594; online)</text><text fill="#000000" font-family="'Helvetica'" font-size="14" lengthAdjust="spacing" textLength="164.1104" x="553.4" y="108.8857">bd update bd-17 status</text></g><g class="entity" data-qualified-name="GMN13" data-source-line="32" id="ent0014"><path d="M350.92,383.7869 L350.92,454.3181 L709.0377,454.3181 L709.0377,393.7869 L699.0377,383.7869 L350.92,383.7869" fill="#FEFFDD" style="stroke:#181818;stroke-width:0.5;"/><path d="M699.0377,383.7869 L699.0377,393.7869 L709.0377,393.7869 L699.0377,383.7869" fill="#FEFFDD" style="stroke:#181818;stroke-width:1;"/><text fill="#000000" font-family="'Helvetica'" font-size="13" lengthAdjust="spacing" textLength="284.0767" x="356.92" y="400.8538">No upstream/canonical copy. No PR review.</text><text fill="#000000" font-family="'Helvetica'" font-size="13" lengthAdjust="spacing" textLength="280.814" x="356.92" y="415.9866">The ai-tools repo IS the authoritative store.</text><text fill="#000000" font-family="'Helvetica'" font-size="13" lengthAdjust="spacing" textLength="337.1177" x="356.92" y="431.1194">Concurrent writes merge row-by-row automatically;</text><text fill="#000000" font-family="'Helvetica'" font-size="13" lengthAdjust="spacing" textLength="334.8452" x="356.92" y="446.2522">rare same-row conflicts resolve via dolt_conflicts_*.</text></g><!--link A to REF--><g class="link" data-entity-1="ent0004" data-entity-2="ent0003" data-link-type="dependency" data-source-line="24" id="lnk7"><path d="M98.7,122.3069 C95.04,138.0869 94.52,155.7569 103.97,169.1869 C151.74,237.0669 240.2636,261.8169 310.8836,271.3169" fill="none" id="A-to-REF" style="stroke:#0969DA;stroke-width:1;"/><polygon fill="#0969DA" points="316.83,272.1169,308.4436,266.9527,311.8746,271.4503,307.3771,274.8813,316.83,272.1169" style="stroke:#0969DA;stroke-width:1;"/><text fill="#000000" font-family="'Helvetica'" font-size="13" lengthAdjust="spacing" textLength="81.1865" x="104.97" y="165.2538">bd dolt push</text></g><!--link REF to A--><g class="link" data-entity-1="ent0003" data-entity-2="ent0004" data-link-type="dependency" data-source-line="27" id="lnk10"><path d="M367.25,251.7969 C317.39,218.7169 235.2796,164.2341 177.3596,125.8041" fill="none" id="REF-to-A" style="stroke:#0969DA;stroke-width:1;stroke-dasharray:7,7;"/><polygon fill="#0969DA" points="172.36,122.4869,177.6479,130.7958,176.5263,125.2512,182.0709,124.1297,172.36,122.4869" style="stroke:#0969DA;stroke-width:1;"/><text fill="#000000" font-family="'Helvetica'" font-size="13" lengthAdjust="spacing" textLength="73.3979" x="243.49" y="165.2538">bd dolt pull</text></g><!--link B to REF--><g class="link" data-entity-1="ent0005" data-entity-2="ent0003" data-link-type="dependency" data-source-line="25" id="lnk8"><path d="M339.11,122.5869 C337.8,137.3969 337.9,154.2969 341.97,169.1869 C350.38,199.9469 366.4706,226.0093 381.7906,246.8893" fill="none" id="B-to-REF" style="stroke:#0969DA;stroke-width:1;"/><polygon fill="#0969DA" points="385.34,251.7269,383.2409,242.1043,382.3822,247.6956,376.7909,246.8368,385.34,251.7269" style="stroke:#0969DA;stroke-width:1;"/><text fill="#000000" font-family="'Helvetica'" font-size="13" lengthAdjust="spacing" textLength="81.1865" x="342.97" y="165.2538">bd dolt push</text></g><!--link REF to B--><g class="link" data-entity-1="ent0003" data-entity-2="ent0005" data-link-type="dependency" data-source-line="28" id="lnk11"><path d="M419.4,251.8369 C431.15,225.6569 444.16,184.3969 428.97,152.1869 C423.72,141.0469 419.9968,135.2328 410.9268,126.6028" fill="none" id="REF-to-B" style="stroke:#0969DA;stroke-width:1;stroke-dasharray:7,7;"/><polygon fill="#0969DA" points="406.58,122.4669,410.3429,131.5686,410.2023,125.9135,415.8574,125.7729,406.58,122.4669" style="stroke:#0969DA;stroke-width:1;"/><text fill="#000000" font-family="'Helvetica'" font-size="13" lengthAdjust="spacing" textLength="73.3979" x="435.2" y="165.2538">bd dolt pull</text></g><!--link C to REF--><g class="link" data-entity-1="ent0006" data-entity-2="ent0003" data-link-type="dependency" data-source-line="26" id="lnk9"><path d="M590.58,122.6869 C568.37,138.0869 541.97,155.3669 516.97,169.1869 C509.31,173.4269 506.1,172.0969 498.97,177.1869 C469.42,198.3269 445.6695,225.2931 428.3695,247.3831" fill="none" id="C-to-REF" style="stroke:#0969DA;stroke-width:1;"/><polygon fill="#0969DA" points="424.67,252.1069,433.3684,247.4875,427.7529,248.1704,427.07,242.5549,424.67,252.1069" style="stroke:#0969DA;stroke-width:1;"/><text fill="#000000" font-family="'Helvetica'" font-size="13" lengthAdjust="spacing" textLength="81.1865" x="543.24" y="165.2538">bd dolt push</text></g><!--link REF to C--><g class="link" data-entity-1="ent0003" data-entity-2="ent0006" data-link-type="dependency" data-source-line="29" id="lnk12"><path d="M421.51,251.6969 C437.58,227.6669 465.05,193.2169 498.97,177.1869 C512.46,170.8169 622.07,179.3669 632.97,169.1869 C645.55,157.4569 649.0257,145.0169 649.0657,128.2669" fill="none" id="REF-to-C" style="stroke:#0969DA;stroke-width:1;stroke-dasharray:7,7;"/><polygon fill="#0969DA" points="649.08,122.2669,645.0585,131.2573,649.0681,127.2669,653.0585,131.2764,649.08,122.2669" style="stroke:#0969DA;stroke-width:1;"/><text fill="#000000" font-family="'Helvetica'" font-size="13" lengthAdjust="spacing" textLength="73.3979" x="645.08" y="165.2538">bd dolt pull</text></g><!--link STORE to GMN13--><g class="link" data-entity-1="ent0002" data-entity-2="ent0014" data-link-type="association" data-source-line="32" id="lnk15"><path d="M529.97,328.9517 C529.97,329.123 529.97,329.2945 529.97,329.4661 C529.97,330.8395 529.97,332.2238 529.97,333.6167 C529.97,339.1882 529.97,344.8973 529.97,350.5898 C529.97,361.975 529.97,373.2944 529.97,383.3169" fill="none" id="STORE-GMN13" style="stroke:#181818;stroke-width:1;stroke-dasharray:7,7;"/></g><?plantuml-src ZPF1JXj138Rl-nHME00L8P2Y5DeAQRDaHG-bAA3sK2eqsN6oqyoEL-FPH57LQn-WZzWdgMT3QGf2D3aaidz_O__Z2IPOX4_b2fO83IE4ql1hcA3I33j1yHpEXhl0ArUW1bLuOWP6PaEEauJdnjNAgmegSbIKdYg4gRAC6oakbQQbSRD76OrJrTYGamiNIYexvsWN64oXEXigZqLGRYPzVaj0FaDLp6UU6gSpikHXAq_ZTvqZhz7VnGU3GHiShxNUeOVZvFi6kh3Kw2UnUNvyDdYCpGxIW_v8ECcwl6FqWhmmkyfq0v7btjlQqrTf-_J6xOGIWPnToHmL1TpjW6Auklum7jqT_7U-ZiSfzpJPqDCgg1idrddntJ0t234qKOmjO3pAfPEZKJ_DOYUEj9HVhIy6KZcsKiM4QBu70NrbdB9mk7lZ9ZhEBFSyqTsZVajAOMkKvY_p_05aA12D2_ZuVeFHlsDuL05Xs-F2u18knzijQlW4AXEKLNMWUWzeEhN68VpwyJFQ8d_NoARM4Ibz7Ru23Yeqt3ApUsQIGlVpri79uEGi_T8zRIsGLTKG3OEwuJ8PFgl8dbN4qBrcJoikKKTf-e_GsYU5m_yLPW-5ObkqW4AWIenQRudio0M9FHp4zAfNA4TENeY5WkhLVinTZc5z4VkYlPPr-xE74gu9tbr1t47LX9Ay4MVD0iLXyXZr6RcYyHvTWALaaQ52FqFmjEnELbtvYPLKgVWihLszaHelMmaiBxPD5-JaIeiGZsEI1mmBezgfRkzJjo_s4tGQue39Rm00?></g></svg>