<?plantuml 1.2026.2?><svg xmlns="http://www.w3.org/2000/svg" xmlns:xlink="http://www.w3.org/1999/xlink" contentStyleType="text/css" data-diagram-type="DESCRIPTION" height="714px" preserveAspectRatio="none" style="width:699px;height:714px;background:#FFFFFF;" version="1.1" viewBox="0 0 699 714" width="699px" zoomAndPan="magnify"><title>The fork workflow has a hole when refs/dolt/data carries the payload</title><defs/><g><g class="title" data-source-line="1"><text fill="#000000" font-family="'Helvetica'" font-size="14" font-weight="bold" lengthAdjust="spacing" textLength="545.9248" x="69.701" y="22.9951">The fork workflow has a hole when refs/dolt/data carries the payload</text></g><!--cluster UP--><g class="cluster" data-qualified-name="UP" data-source-line="12" id="ent0002"><path d="M37.524,218.7374 C42.4934,204.8942 52.4777,204.1613 61.3985,214.8996 C69.3331,201.3656 79.9841,200.8452 88.5474,214.2663 C94.5075,202.4259 105.2287,203.337 112.4327,212.8767 C119.3852,201.5308 127.6241,199.412 137.0782,210.0755 C144.7965,197.3103 157.9769,199.033 164.6295,211.2507 C170.6394,197.9443 182.8663,196.6833 190.7406,209.3783 C198.6188,194.9095 207.0636,197.754 216.2406,208.0406 C222.9941,195.0069 233.6786,193.2463 241.6598,206.87 C250.2898,196.5432 260.4796,200.6185 265.0044,211.4084 C271.6351,200.7014 282.3787,201.1998 289.3285,211.0305 C298.9114,198.9595 308.2759,196.7827 316.7458,212.1429 C324.7532,202.682 332.8204,201.5989 340.5322,212.4885 C349.4061,201.3377 361.2311,200.5681 366.9688,215.6492 C378.6029,204.8142 390.3861,204.2014 395.9544,221.8269 C399.7376,221.1389 401.3532,222.5739 400.7326,226.4437 C421.384,234.6034 429.2068,251.8804 408.8684,268.0545 C428.708,293.2843 415.318,311.4629 388.9544,318.4269 C391.1209,319.7653 390.9922,321.2359 388.9991,322.6186 C382.2272,332.6244 372.7144,333.8889 366.2517,322.293 C358.1557,333.2153 349.5989,333.2566 341.5091,322.2861 C335.4638,337.498 324.2722,337.4647 314.4416,326.1483 C306.2866,334.6426 297.4462,335.9422 291.6664,323.5574 C285.7366,338.8494 276.0532,341.1786 265.0352,328.3814 C256.8288,342.0444 247.6124,340.3392 238.5419,329.3084 C231.7108,341.1991 224.1557,340.4803 216.8302,329.7836 C207.7706,340.2522 198.3578,340.2648 191.9588,326.9958 C182.1386,340.9027 173.7718,340.5604 164.938,326.0577 C157.1424,337.1737 146.355,340.2297 138.6325,325.9819 C129.7012,337.988 118.774,338.084 111.7591,324.0074 C106.6895,335.0207 97.082,333.5019 90.9514,325.1473 C81.9188,338.9044 69.0961,337.3822 63.2257,322.1254 C47.8725,336.2871 33.9314,330.504 28.9544,311.4269 C31.6425,310.1766 33.136,310.8021 33.4116,313.9 C9.577,305.0518 6.8286,282.1511 26.3999,266.8362 C6,245.9196 9.2812,227.0958 35.9544,214.8269 C38.3587,215.2299 39.1355,216.7225 37.524,218.7374" fill="#E6F4EA" style="stroke:#181818;stroke-width:1;"/><text fill="#000000" font-family="'Helvetica'" font-size="14" font-weight="bold" lengthAdjust="spacing" textLength="86.3721" x="169.2684" y="232.822">UPSTREAM</text><text fill="#000000" font-family="'Helvetica'" font-size="14" font-weight="bold" lengthAdjust="spacing" textLength="148.0459" x="138.4315" y="249.1189">idvorkin/dolt-thing</text></g><!--cluster FK--><g class="cluster" data-qualified-name="FK" data-source-line="17" id="ent0005"><path d="M161.7876,411.2914 C169.8929,397.3356 185.0799,397.5513 192.5449,411.9852 C199.3153,395.2529 211.3892,394.2399 222.7557,407.3292 C232.9824,394.1232 243.4642,397.543 251.1698,410.1088 C259.9939,397.0835 270.5929,396.5627 280.2571,409.1548 C288.8239,395.8442 298.443,394.1784 307.754,408.4118 C315.0051,391.6021 327.9346,393.9165 338.0946,405.279 C348.0713,389.438 359.2095,389.5055 370.414,403.9697 C381.6536,389.784 390.7552,391.295 399.2861,406.6198 C405.7178,394.2806 419.0798,390.6198 427.2013,404.8439 C438.2249,392.0555 450.0361,391.4757 457.4511,408.5049 C465.8995,393.5885 476.8197,392.7119 486.8497,406.9077 C498.776,392.7908 509.1657,398.4159 516.1843,412.0883 C526.3015,397.2199 535.8596,398.9095 544.5427,413.4703 C555.0818,399.7558 570.0005,400.9276 577.9544,416.4269 C580.4959,415.6726 581.6099,416.5547 581.7689,419.1445 C609.917,434.8603 609.0235,454.919 584.6779,473.4469 C610.0314,496.5552 602.8569,520.0484 570.9544,529.0169 C573.0703,528.8481 574.2597,530.0322 573.2805,532.1565 C562.967,547.7463 553.2221,545.1151 543.2446,531.8072 C535.7082,542.5834 525.8631,544.2677 517.6883,532.5319 C510.4543,549.7154 496.4974,551.3152 483.885,538.6159 C477.1742,551.8597 463.8306,551.5545 456.0543,539.8022 C446.9931,554.3821 437.9378,551.9192 427.9359,540.8329 C419.5156,556.6725 405.992,555.6052 397.8571,540.555 C391.5151,555.6441 382.0566,555.8589 370.6162,546.1574 C358.8124,560.069 344.8097,555.4478 337.7884,540.6826 C327.8186,555.549 315.8881,552.6407 308.8225,537.8464 C300.8969,550.5638 291.8593,551.0263 282.024,540.0021 C270.2188,551.755 260.3486,549.4018 252.4366,535.5103 C244.4745,547.9912 231.4426,549.5551 223.0694,535.9736 C212.2367,551.0508 200.4859,549.5938 193.458,532.4744 C176.3269,551.6034 159.9756,542.0454 152.9544,522.0169 C155.0071,519.752 156.5728,520.1748 157.8634,522.7845 C132.9127,506.1176 135.8229,490.7409 156.131,472.5144 C129.2412,453.1821 126.4982,425.102 159.9544,409.4269 C161.4374,409.2065 161.9563,409.8878 161.7876,411.2914" fill="#FFF8D6" style="stroke:#181818;stroke-width:1;"/><text fill="#000000" font-family="'Helvetica'" font-size="14" font-weight="bold" lengthAdjust="spacing" textLength="43.0938" x="343.9075" y="427.422">FORK</text><text fill="#000000" font-family="'Helvetica'" font-size="14" font-weight="bold" lengthAdjust="spacing" textLength="212.9736" x="258.9676" y="443.7189">idvorkin-ai-tools/dolt-thing</text></g><!--entity UP_H--><g class="entity" data-qualified-name="UP.UP_H" data-source-line="13" id="ent0003"><rect fill="#D9EDFF" height="52.5938" rx="4" ry="4" style="stroke:#666666;stroke-width:0.5;" width="147.0869" x="37.4144" y="257.8269"/><text fill="#000000" font-family="'Helvetica'" font-size="14" lengthAdjust="spacing" textLength="113.251" x="47.4144" y="280.822">refs/heads/main</text><text fill="#000000" font-family="'Helvetica'" font-size="14" lengthAdjust="spacing" textLength="127.0869" x="47.4144" y="297.1189">(README &#8212; seed)</text></g><!--entity UP_D--><g class="entity" data-qualified-name="UP.UP_D" data-source-line="14" id="ent0004"><rect fill="#F5C2C7" height="52.5938" rx="4" ry="4" style="stroke:#666666;stroke-width:0.5;" width="168.9346" x="219.4844" y="257.8269"/><text fill="#000000" font-family="'Helvetica'" font-size="14" lengthAdjust="spacing" textLength="94.3906" x="229.4844" y="280.822">refs/dolt/data</text><text fill="#000000" font-family="'Helvetica'" font-size="14" lengthAdjust="spacing" textLength="148.9346" x="229.4844" y="297.1189">(STALE after AI push)</text></g><!--entity FK_H--><g class="entity" data-qualified-name="FK.FK_H" data-source-line="18" id="ent0006"><rect fill="#D9EDFF" height="52.5938" rx="4" ry="4" style="stroke:#666666;stroke-width:0.5;" width="189.6611" x="169.1244" y="460.4269"/><text fill="#000000" font-family="'Helvetica'" font-size="14" lengthAdjust="spacing" textLength="113.251" x="179.1244" y="483.422">refs/heads/main</text><text fill="#000000" font-family="'Helvetica'" font-size="14" lengthAdjust="spacing" textLength="169.6611" x="179.1244" y="499.7189">(README &#8212; same seed)</text></g><!--entity FK_D--><g class="entity" data-qualified-name="FK.FK_D" data-source-line="19" id="ent0007"><rect fill="#C4E2AC" height="52.5938" rx="4" ry="4" style="stroke:#666666;stroke-width:0.5;" width="148.5771" x="393.6644" y="460.4269"/><text fill="#000000" font-family="'Helvetica'" font-size="14" lengthAdjust="spacing" textLength="94.3906" x="403.6644" y="483.422">refs/dolt/data</text><text fill="#000000" font-family="'Helvetica'" font-size="14" lengthAdjust="spacing" textLength="128.5771" x="403.6644" y="499.7189">(has AI's new row)</text></g><!--entity DEV--><g class="entity" data-qualified-name="DEV" data-source-line="22" id="ent0008"><polygon fill="#EAF3FF" points="465.4644,262.8269,475.4644,252.8269,618.4488,252.8269,618.4488,305.4206,608.4488,315.4206,465.4644,315.4206,465.4644,262.8269" style="stroke:#181818;stroke-width:0.5;"/><line style="stroke:#181818;stroke-width:0.5;" x1="608.4488" x2="618.4488" y1="262.8269" y2="252.8269"/><line style="stroke:#181818;stroke-width:0.5;" x1="465.4644" x2="608.4488" y1="262.8269" y2="262.8269"/><line style="stroke:#181818;stroke-width:0.5;" x1="608.4488" x2="608.4488" y1="262.8269" y2="315.4206"/><text fill="#000000" font-family="'Helvetica'" font-size="14" lengthAdjust="spacing" textLength="112.9844" x="480.4644" y="285.822">AI-tools dev box</text><text fill="#000000" font-family="'Helvetica'" font-size="14" lengthAdjust="spacing" textLength="111.9932" x="480.4644" y="302.1189">(fork write only)</text></g><!--entity ADMIN--><g class="entity" data-qualified-name="ADMIN" data-source-line="23" id="ent0009"><polygon fill="#EAF3FF" points="225.1044,57.2669,235.1044,47.2669,382.8056,47.2669,382.8056,99.8606,372.8056,109.8606,225.1044,109.8606,225.1044,57.2669" style="stroke:#181818;stroke-width:0.5;"/><line style="stroke:#181818;stroke-width:0.5;" x1="372.8056" x2="382.8056" y1="57.2669" y2="47.2669"/><line style="stroke:#181818;stroke-width:0.5;" x1="225.1044" x2="372.8056" y1="57.2669" y2="57.2669"/><line style="stroke:#181818;stroke-width:0.5;" x1="372.8056" x2="372.8056" y1="57.2669" y2="109.8606"/><text fill="#000000" font-family="'Helvetica'" font-size="14" lengthAdjust="spacing" textLength="27.3369" x="240.1044" y="80.262">Igor</text><text fill="#000000" font-family="'Helvetica'" font-size="14" lengthAdjust="spacing" textLength="117.7012" x="240.1044" y="96.5589">(upstream write)</text></g><g class="entity" data-qualified-name="GMN14" data-source-line="32" id="ent0015"><path d="M463.5744,592.0169 L463.5744,707.9466 L692.3269,707.9466 L692.3269,602.0169 L682.3269,592.0169 L463.5744,592.0169" fill="#FEFFDD" style="stroke:#181818;stroke-width:0.5;"/><path d="M682.3269,592.0169 L682.3269,602.0169 L692.3269,602.0169 L682.3269,592.0169" fill="#FEFFDD" style="stroke:#181818;stroke-width:1;"/><text fill="#000000" font-family="'Helvetica'" font-size="13" lengthAdjust="spacing" textLength="192.5562" x="469.5744" y="609.0838">PR fork-&gt;upstream compares</text><text fill="#000000" font-family="'Helvetica'" font-size="13" lengthAdjust="spacing" textLength="200.8335" x="469.5744" y="624.2166">refs/heads/main on both sides.</text><text fill="#000000" font-family="'Helvetica'" font-size="13" lengthAdjust="spacing" textLength="173.6719" x="469.5744" y="639.3494">Both are the seed commit.</text><text fill="#000000" font-family="'Helvetica'" font-size="13" font-weight="bold" lengthAdjust="spacing" textLength="191.2041" x="469.5744" y="654.4822">GitHub diff view is empty.</text><text fill="#000000" font-family="'Helvetica'" font-size="13" lengthAdjust="spacing" textLength="207.7524" x="469.5744" y="669.615">Merge button advances nothing</text><text fill="#000000" font-family="'Helvetica'" font-size="13" lengthAdjust="spacing" textLength="186.7861" x="469.5744" y="684.7478">useful &#8212; refs/dolt/data stays</text><text fill="#000000" font-family="'Helvetica'" font-size="13" lengthAdjust="spacing" textLength="122.3701" x="469.5744" y="699.8806">stale on upstream.</text></g><g class="entity" data-qualified-name="GMN18" data-source-line="43" id="ent0019"><path d="M417.5844,43.2969 L417.5844,74.5669 L383.0844,78.5669 L417.5844,82.5669 L417.5844,113.8281 A0,0 0 0 0 417.5844,113.8281 L628.3286,113.8281 A0,0 0 0 0 628.3286,113.8281 L628.3286,53.2969 L618.3286,43.2969 L417.5844,43.2969 A0,0 0 0 0 417.5844,43.2969" fill="#FEFFDD" style="stroke:#181818;stroke-width:0.5;"/><path d="M618.3286,43.2969 L618.3286,53.2969 L628.3286,53.2969 L618.3286,43.2969" fill="#FEFFDD" style="stroke:#181818;stroke-width:0.5;"/><text fill="#000000" font-family="'Helvetica'" font-size="13" lengthAdjust="spacing" textLength="149.4619" x="423.5844" y="60.3638">Only path that actually</text><text fill="#000000" font-family="'Helvetica'" font-size="13" lengthAdjust="spacing" textLength="189.7441" x="423.5844" y="75.4966">moves the data to upstream.</text><text fill="#000000" font-family="'Helvetica'" font-size="13" lengthAdjust="spacing" textLength="177.6646" x="423.5844" y="90.6294">Requires upstream write &#8212;</text><text fill="#000000" font-family="'Helvetica'" font-size="13" lengthAdjust="spacing" textLength="162.3413" x="423.5844" y="105.7622">AI-tools does not have it.</text></g><!--link DEV to FK_D--><g class="link" data-entity-1="ent0008" data-entity-2="ent0007" data-link-type="dependency" data-source-line="25" id="lnk10"><path d="M538.2344,315.6269 C535.4644,333.8869 530.9344,357.3769 523.9544,377.4269 C513.6544,407.0069 499.6036,433.4194 486.9936,454.7894" fill="none" id="DEV-to-FK_D" style="stroke:#0969DA;stroke-width:1;"/><polygon fill="#0969DA" points="483.9444,459.9569,491.9632,454.2385,486.4854,455.6507,485.0733,450.1729,483.9444,459.9569" style="stroke:#0969DA;stroke-width:1;"/><text fill="#000000" font-family="'Helvetica'" font-size="13" lengthAdjust="spacing" textLength="138.3091" x="541.0381" y="358.4938">dolt push origin main</text><text fill="#000000" font-family="'Helvetica'" font-size="13" lengthAdjust="spacing" textLength="153.8164" x="533.2844" y="373.6266">advances refs/dolt/data</text></g><!--link DEV to FK_H--><g class="link" data-entity-1="ent0008" data-entity-2="ent0006" data-link-type="dependency" data-source-line="26" id="lnk11"><path d="M465.0244,315.5069 C445.3444,322.4769 424.0544,329.3269 403.9544,334.4269 C373.0044,342.2769 358.6844,326.5169 332.9544,345.4269 C295.0044,373.3069 278.2132,422.0046 270.4232,454.2546" fill="none" id="DEV-to-FK_H" style="stroke:#999999;stroke-width:1;stroke-dasharray:7,7;"/><polygon fill="#999999" points="269.0144,460.0869,275.0158,452.2777,270.1884,455.2267,267.2394,450.3993,269.0144,460.0869" style="stroke:#999999;stroke-width:1;"/><text fill="#000000" font-family="'Helvetica'" font-size="13" lengthAdjust="spacing" textLength="181.8667" x="333.9544" y="358.4938">refs/heads/main unchanged</text><text fill="#000000" font-family="'Helvetica'" font-size="13" lengthAdjust="spacing" textLength="140.7275" x="354.524" y="373.6266">(dolt doesn't touch it)</text></g><!--link UP_H to FK_H--><!--link UP_D to FK_D--><!--link FK to GMN14--><g class="link" data-entity-1="ent0005" data-entity-2="ent0015" data-link-type="association" data-source-line="32" id="lnk16"><path d="M577.9544,537.2421 C577.9544,537.4128 577.9544,537.5838 577.9544,537.755 C577.9544,538.4398 577.9544,539.1281 577.9544,539.8196 C577.9544,545.3514 577.9544,551.089 577.9544,556.9077 C577.9544,568.545 577.9544,580.5069 577.9544,591.7969" fill="none" id="FK-GMN14" style="stroke:#181818;stroke-width:1;stroke-dasharray:7,7;"/></g><!--link ADMIN to UP_D--><g class="link" data-entity-1="ent0009" data-entity-2="ent0004" data-link-type="dependency" data-source-line="41" id="lnk17"><path d="M303.9544,110.0369 C303.9544,150.1869 303.9544,214.0869 303.9544,251.5969" fill="none" id="ADMIN-to-UP_D" style="stroke:#C0A02E;stroke-width:1;"/><polygon fill="#C0A02E" points="303.9544,257.5969,307.9544,248.5969,303.9544,252.5969,299.9544,248.5969,303.9544,257.5969" style="stroke:#C0A02E;stroke-width:1;"/><text fill="#000000" font-family="'Helvetica'" font-size="13" lengthAdjust="spacing" textLength="91.6411" x="348.4612" y="156.8938">dolt fetch fork</text><text fill="#000000" font-family="'Helvetica'" font-size="13" lengthAdjust="spacing" textLength="152.7246" x="317.9195" y="172.0266">+ dolt merge fork/main</text><text fill="#000000" font-family="'Helvetica'" font-size="13" lengthAdjust="spacing" textLength="178.6548" x="304.9544" y="187.1594">+ dolt push upstream main</text></g><?plantuml-src bLHTJzim57tFhxXg7nXb0SHOH_U0b3N9MZ4-L60lW2OJEur5ujlPJhjgchGViL-uNx9hfwG5zaAHMd6_VCwvnxRIbWAk2W4vwWTOq5TUuW8APe11WPHS54A15hdPurZQFSuiWunfBOK1IuqpjYoHyI0m3rBDc6OLLAWmApHMD9QLHcoaJC4uBgIQliXmaREwj2agUyQeipCIvLnOcR7EHfKMcMLgIhX-1a2VJonxc6gi5HzYYHgwQUJ-cXngBlGgtk_tVN3Ir6ebD1m5lu8WAx7cqBc-kBoQ9D7fhP9yJZ98vVc6jY2m7I0zhY-Wc_JJmoHQdRt6ql7w589nirSngMxL6veLdoRmz_SVC4BmxTM8RoFeneCaJjF_ZcWbfWcNLz6N15Xk2MaqXbbjYdPAJ4JV3m-67pOOfEUJapNwaCdG8fRcEOtqX7hJz2ZklvQ6sygQItho2YxEJz5uou0I2z2uQ4SGaU5XSX0D7H65d9gZSGES7367U_n1xOqvjRG2K9NBfZjElj92elGTdTzqZgUegRgU6Qi5cSLtDCN4OdpMbWUkDxpfxW_wWpYw2uyRA1_1OVPA0sevbGeQ6HYVCvMHuPyIUnmp60pUScOAmLUZHZJgcPPGgwmWUGGdXFuOZiAeBGiMwwm0QRU3mFiZl2aavqBTXNvKuDVzD1WxhKYCUxGMAy2SWhI3Yuc_nk5ngq265TqROG9uWGULQo_0I2xCRk2k2_r7nVvMkpsxxafQb-lrFaixgk-1opo7kQGjIWEYcjdbRgz71QT2JmbFJNWKj78HIESxojT6v7NfVVJiBJ6MBHq--YtTUk4H_6uW57SZH10qwoEfX_lH_a7YPFQoh3QM2qiIEkwtQgS9LHwG2wsilBEnt5OVbsgaf7KNrYdfZo8yvsGqUjn84rim2oopDIlB9MKgdA_UFa_0uWPaUc34zrgIvF3KXeuwPTVcnaOVUchd0fpABTj_?></g></svg>