<?plantuml 1.2026.2?><svg xmlns="http://www.w3.org/2000/svg" xmlns:xlink="http://www.w3.org/1999/xlink" contentStyleType="text/css" data-diagram-type="SEQUENCE" height="579px" preserveAspectRatio="none" style="width:771px;height:579px;background:#FFFFFF;" version="1.1" viewBox="0 0 771 579" width="771px" zoomAndPan="magnify"><title>`dolt push` through a GitHub URL</title><defs/><g><text fill="#000000" font-family="'Helvetica'" font-size="14" font-weight="bold" lengthAdjust="spacing" textLength="266.1299" x="254.3645" y="27.9951">`dolt push` through a GitHub URL</text><g class="participant-lifeline" data-entity-uid="part1" data-qualified-name="USER" id="part1-lifeline"><g><title>you</title><rect fill="#000000" fill-opacity="0.00000" height="363.8594" width="8" x="16.8618" y="120.8906"/><line style="stroke:#0969DA;stroke-width:0.5;stroke-dasharray:5,5;" x1="20" x2="20" y1="120.8906" y2="484.75"/></g></g><g class="participant-lifeline" data-entity-uid="part2" data-qualified-name="DOLT" id="part2-lifeline"><g><title>dolt</title><rect fill="#000000" fill-opacity="0.00000" height="363.8594" width="8" x="242.73" y="120.8906"/><line style="stroke:#0969DA;stroke-width:0.5;stroke-dasharray:5,5;" x1="246.3145" x2="246.3145" y1="120.8906" y2="484.75"/></g></g><g class="participant-lifeline" data-entity-uid="part3" data-qualified-name="CRED" id="part3-lifeline"><g><title>git credential</title><rect fill="#000000" fill-opacity="0.00000" height="363.8594" width="8" x="412.8594" y="120.8906"/><line style="stroke:#0969DA;stroke-width:0.5;stroke-dasharray:5,5;" x1="416.3579" x2="416.3579" y1="120.8906" y2="484.75"/></g></g><g class="participant-lifeline" data-entity-uid="part4" data-qualified-name="GH" id="part4-lifeline"><g><title>github.com</title><rect fill="#000000" fill-opacity="0.00000" height="363.8594" width="8" x="530.2588" y="120.8906"/><line style="stroke:#0969DA;stroke-width:0.5;stroke-dasharray:5,5;" x1="533.3608" x2="533.3608" y1="120.8906" y2="484.75"/></g></g><g class="participant-lifeline" data-entity-uid="part5" data-qualified-name="REF" id="part5-lifeline"><g><title>refs.dolt.data</title><rect fill="#000000" fill-opacity="0.00000" height="363.8594" width="8" x="716.6636" y="120.8906"/><line style="stroke:#0969DA;stroke-width:0.5;stroke-dasharray:5,5;" x1="720.4683" x2="720.4683" y1="120.8906" y2="484.75"/></g></g><g class="participant participant-head" data-entity-uid="part1" data-qualified-name="USER" id="part1-head"><text fill="#000000" font-family="'Helvetica'" font-size="14" lengthAdjust="spacing" textLength="25.7236" x="5" y="117.5889">you</text><ellipse cx="20.8618" cy="53.0938" fill="#D9EDFF" rx="8" ry="8" style="stroke:#0969DA;stroke-width:0.5;"/><path d="M20.8618,61.0938 L20.8618,88.0938 M7.8618,69.0938 L33.8618,69.0938 M20.8618,88.0938 L7.8618,103.0938 M20.8618,88.0938 L33.8618,103.0938" fill="none" style="stroke:#0969DA;stroke-width:0.5;"/></g><g class="participant participant-tail" data-entity-uid="part1" data-qualified-name="USER" id="part1-tail"><text fill="#000000" font-family="'Helvetica'" font-size="14" lengthAdjust="spacing" textLength="25.7236" x="5" y="496.7451">you</text><ellipse cx="20.8618" cy="508.5469" fill="#D9EDFF" rx="8" ry="8" style="stroke:#0969DA;stroke-width:0.5;"/><path d="M20.8618,516.5469 L20.8618,543.5469 M7.8618,524.5469 L33.8618,524.5469 M20.8618,543.5469 L7.8618,558.5469 M20.8618,543.5469 L33.8618,558.5469" fill="none" style="stroke:#0969DA;stroke-width:0.5;"/></g><g class="participant participant-head" data-entity-uid="part2" data-qualified-name="DOLT" id="part2-head"><rect fill="#EAF3FF" height="30.2969" rx="2.5" ry="2.5" style="stroke:#0969DA;stroke-width:0.5;" width="40.8311" x="226.3145" y="89.5938"/><text fill="#000000" font-family="'Helvetica'" font-size="14" lengthAdjust="spacing" textLength="26.8311" x="233.3145" y="109.5889">dolt</text></g><g class="participant participant-tail" data-entity-uid="part2" data-qualified-name="DOLT" id="part2-tail"><rect fill="#EAF3FF" height="30.2969" rx="2.5" ry="2.5" style="stroke:#0969DA;stroke-width:0.5;" width="40.8311" x="226.3145" y="483.75"/><text fill="#000000" font-family="'Helvetica'" font-size="14" lengthAdjust="spacing" textLength="26.8311" x="233.3145" y="503.7451">dolt</text></g><g class="participant participant-head" data-entity-uid="part3" data-qualified-name="CRED" id="part3-head"><rect fill="#EAF3FF" height="46.5938" rx="2.5" ry="2.5" style="stroke:#0969DA;stroke-width:0.5;" width="107.0029" x="363.3579" y="73.2969"/><text fill="#000000" font-family="'Helvetica'" font-size="14" lengthAdjust="spacing" textLength="93.0029" x="370.3579" y="93.292">git credential</text><text fill="#000000" font-family="'Helvetica'" font-size="14" lengthAdjust="spacing" textLength="44.6318" x="394.5435" y="109.5889">helper</text></g><g class="participant participant-tail" data-entity-uid="part3" data-qualified-name="CRED" id="part3-tail"><rect fill="#EAF3FF" height="46.5938" rx="2.5" ry="2.5" style="stroke:#0969DA;stroke-width:0.5;" width="107.0029" x="363.3579" y="483.75"/><text fill="#000000" font-family="'Helvetica'" font-size="14" lengthAdjust="spacing" textLength="93.0029" x="370.3579" y="503.7451">git credential</text><text fill="#000000" font-family="'Helvetica'" font-size="14" lengthAdjust="spacing" textLength="44.6318" x="394.5435" y="520.042">helper</text></g><g class="participant participant-head" data-entity-uid="part4" data-qualified-name="GH" id="part4-head"><rect fill="#EAF3FF" height="46.5938" rx="2.5" ry="2.5" style="stroke:#0969DA;stroke-width:0.5;" width="107.7959" x="480.3608" y="73.2969"/><text fill="#000000" font-family="'Helvetica'" font-size="14" lengthAdjust="spacing" textLength="79.249" x="494.6343" y="93.292">github.com</text><text fill="#000000" font-family="'Helvetica'" font-size="14" lengthAdjust="spacing" textLength="93.7959" x="487.3608" y="109.5889">(Smart HTTP)</text></g><g class="participant participant-tail" data-entity-uid="part4" data-qualified-name="GH" id="part4-tail"><rect fill="#EAF3FF" height="46.5938" rx="2.5" ry="2.5" style="stroke:#0969DA;stroke-width:0.5;" width="107.7959" x="480.3608" y="483.75"/><text fill="#000000" font-family="'Helvetica'" font-size="14" lengthAdjust="spacing" textLength="79.249" x="494.6343" y="503.7451">github.com</text><text fill="#000000" font-family="'Helvetica'" font-size="14" lengthAdjust="spacing" textLength="93.7959" x="487.3608" y="520.042">(Smart HTTP)</text></g><g class="participant participant-head" data-entity-uid="part5" data-qualified-name="REF" id="part5-head"><text fill="#000000" font-family="'Helvetica'" font-size="14" lengthAdjust="spacing" textLength="94.3906" x="670.4683" y="101.292">refs/dolt/data</text><text fill="#000000" font-family="'Helvetica'" font-size="14" lengthAdjust="spacing" textLength="81.3271" x="677" y="117.5889">(on GitHub)</text><path d="M702.6636,52.2969 C702.6636,42.2969 720.6636,42.2969 720.6636,42.2969 C720.6636,42.2969 738.6636,42.2969 738.6636,52.2969 L738.6636,78.2969 C738.6636,88.2969 720.6636,88.2969 720.6636,88.2969 C720.6636,88.2969 702.6636,88.2969 702.6636,78.2969 L702.6636,52.2969" fill="#E2E2F0" style="stroke:#181818;stroke-width:0.5;"/><path d="M702.6636,52.2969 C702.6636,62.2969 720.6636,62.2969 720.6636,62.2969 C720.6636,62.2969 738.6636,62.2969 738.6636,52.2969" fill="none" style="stroke:#181818;stroke-width:0.5;"/></g><g class="participant participant-tail" data-entity-uid="part5" data-qualified-name="REF" id="part5-tail"><text fill="#000000" font-family="'Helvetica'" font-size="14" lengthAdjust="spacing" textLength="94.3906" x="670.4683" y="496.7451">refs/dolt/data</text><text fill="#000000" font-family="'Helvetica'" font-size="14" lengthAdjust="spacing" textLength="81.3271" x="677" y="513.042">(on GitHub)</text><path d="M702.6636,526.3438 C702.6636,516.3438 720.6636,516.3438 720.6636,516.3438 C720.6636,516.3438 738.6636,516.3438 738.6636,526.3438 L738.6636,552.3438 C738.6636,562.3438 720.6636,562.3438 720.6636,562.3438 C720.6636,562.3438 702.6636,562.3438 702.6636,552.3438 L702.6636,526.3438" fill="#E2E2F0" style="stroke:#181818;stroke-width:0.5;"/><path d="M702.6636,526.3438 C702.6636,536.3438 720.6636,536.3438 720.6636,536.3438 C720.6636,536.3438 738.6636,536.3438 738.6636,526.3438" fill="none" style="stroke:#181818;stroke-width:0.5;"/></g><g class="message" data-entity-1="part1" data-entity-2="part2" id="msg1"><polygon fill="#0969DA" points="234.73,163.1563,244.73,167.1563,234.73,171.1563,238.73,167.1563" style="stroke:#0969DA;stroke-width:1;"/><line style="stroke:#0969DA;stroke-width:1;" x1="20.8618" x2="240.73" y1="167.1563" y2="167.1563"/><text fill="#000000" font-family="'Helvetica'" font-size="13" lengthAdjust="spacing" textLength="145.8501" x="60.8708" y="146.9575">dolt remote add origin</text><text fill="#000000" font-family="'Helvetica'" font-size="13" lengthAdjust="spacing" textLength="191.9849" x="41.9358" y="162.0903">https://github.com/.../repo.git</text></g><path d="M251,180.1563 L251,220.1563 L415,220.1563 L415,190.1563 L405,180.1563 L251,180.1563" fill="#FEFFDD" style="stroke:#181818;stroke-width:0.5;"/><path d="M405,180.1563 L405,190.1563 L415,190.1563 L405,180.1563" fill="#FEFFDD" style="stroke:#181818;stroke-width:0.5;"/><text fill="#000000" font-family="'Helvetica'" font-size="13" lengthAdjust="spacing" textLength="117.4189" x="257" y="197.2231">URL ends in .git &#8594;</text><text fill="#000000" font-family="'Helvetica'" font-size="13" lengthAdjust="spacing" textLength="135.1226" x="265.2646" y="212.356">auto-prefix with git+</text><g class="message" data-entity-1="part1" data-entity-2="part2" id="msg2"><polygon fill="#0969DA" points="234.73,242.5547,244.73,246.5547,234.73,250.5547,238.73,246.5547" style="stroke:#0969DA;stroke-width:1;"/><line style="stroke:#0969DA;stroke-width:1;" x1="20.8618" x2="240.73" y1="246.5547" y2="246.5547"/><text fill="#000000" font-family="'Helvetica'" font-size="13" lengthAdjust="spacing" textLength="155.3716" x="56.1101" y="241.4888">dolt push -u origin main</text></g><g class="message" data-entity-1="part2" data-entity-2="part3" id="msg3"><polygon fill="#0969DA" points="404.8594,286.8203,414.8594,290.8203,404.8594,294.8203,408.8594,290.8203" style="stroke:#0969DA;stroke-width:1;"/><line style="stroke:#0969DA;stroke-width:1;" x1="246.73" x2="410.8594" y1="290.8203" y2="290.8203"/><text fill="#000000" font-family="'Helvetica'" font-size="13" lengthAdjust="spacing" textLength="120.4468" x="271.5713" y="270.6216">ask for credentials</text><text fill="#000000" font-family="'Helvetica'" font-size="13" lengthAdjust="spacing" textLength="146.1294" x="258.73" y="285.7544">(same helper git uses)</text></g><g class="message" data-entity-1="part3" data-entity-2="part2" id="msg4"><polygon fill="#0969DA" points="257.73,315.9531,247.73,319.9531,257.73,323.9531,253.73,319.9531" style="stroke:#0969DA;stroke-width:1;"/><line style="stroke:#0969DA;stroke-width:1;stroke-dasharray:2,2;" x1="251.73" x2="415.8594" y1="319.9531" y2="319.9531"/><text fill="#000000" font-family="'Helvetica'" font-size="13" lengthAdjust="spacing" textLength="36.8164" x="313.3865" y="314.8872">token</text></g><g class="message" data-entity-1="part2" data-entity-2="part4" id="msg5"><polygon fill="#0969DA" points="522.2588,360.2188,532.2588,364.2188,522.2588,368.2188,526.2588,364.2188" style="stroke:#0969DA;stroke-width:1;"/><line style="stroke:#0969DA;stroke-width:1;" x1="246.73" x2="528.2588" y1="364.2188" y2="364.2188"/><text fill="#000000" font-family="'Helvetica'" font-size="13" lengthAdjust="spacing" textLength="179.1689" x="300.9099" y="344.02">git send-pack (Smart HTTP)</text><text fill="#000000" font-family="'Helvetica'" font-size="13" lengthAdjust="spacing" textLength="257.2451" x="261.8718" y="359.1528">with refs/dolt/data and refs/heads/main</text></g><g class="message" data-entity-1="part4" data-entity-2="part5" id="msg6"><polygon fill="#0969DA" points="708.6636,404.4844,718.6636,408.4844,708.6636,412.4844,712.6636,408.4844" style="stroke:#0969DA;stroke-width:1;"/><line style="stroke:#0969DA;stroke-width:1;" x1="534.2588" x2="714.6636" y1="408.4844" y2="408.4844"/><text fill="#000000" font-family="'Helvetica'" font-size="13" lengthAdjust="spacing" textLength="162.4048" x="546.2588" y="388.2856">store chunks as git blobs</text><text fill="#000000" font-family="'Helvetica'" font-size="13" lengthAdjust="spacing" textLength="107.9736" x="573.4744" y="403.4185">on refs/dolt/data</text></g><g class="message" data-entity-1="part4" data-entity-2="part2" id="msg7"><polygon fill="#0969DA" points="257.73,433.6172,247.73,437.6172,257.73,441.6172,253.73,437.6172" style="stroke:#0969DA;stroke-width:1;"/><line style="stroke:#0969DA;stroke-width:1;stroke-dasharray:2,2;" x1="251.73" x2="533.2588" y1="437.6172" y2="437.6172"/><text fill="#000000" font-family="'Helvetica'" font-size="13" lengthAdjust="spacing" textLength="163.1348" x="308.927" y="432.5513">ok (new branch, new ref)</text></g><g class="message" data-entity-1="part2" data-entity-2="part1" id="msg8"><polygon fill="#0969DA" points="31.8618,462.75,21.8618,466.75,31.8618,470.75,27.8618,466.75" style="stroke:#0969DA;stroke-width:1;"/><line style="stroke:#0969DA;stroke-width:1;stroke-dasharray:2,2;" x1="25.8618" x2="245.73" y1="466.75" y2="466.75"/><text fill="#000000" font-family="'Helvetica'" font-size="13" lengthAdjust="spacing" textLength="201.8682" x="32.8618" y="461.6841">"* [new branch] main -&gt; main"</text></g><?plantuml-src VLBBZjD04BpFLxJCXGKI8o4X9GUai7aT0goosHD1shQdROzYpvYPCG6jkF81V29VGiyao0dxyCLMLtLrkRgzyZN1hJIrXxPprItuofgkh01XeVooo-1clHB2xPHkqM83Zhvsf7FwGCvXIPDQbHfoqfxi2QinskIir10KM3iw5QXGchtIvJr4Ke5TxUT6-u_8dScIwc_aLOx90mRWJW0_4slD_jBKniAprwEte-aabbUge9NIzDvOIVO97FDToN-ivP4pcypVpEUHSuMMXwiMjNzCvfJoXD8azyO-fd40_--UZcPJxluf10OSaX-cIm0Tt5pFrgBjvq8IjXUXwQVLvXmgbOVSakJzAAotkgAw9Hl9b-lPz1wvwh9XRfgjVdxTC0JBpURg8j8NIo7HOuQE5sEfS6aOcuOQiuq-dik1l9xDXGX6OV0kke8nn1kpr1XFW5A2iQfKUgi1AkzRDqxJVduw70vJIwqPSateqCBioeCf_idnMG9fwK1f22puy-jt4CFEcq7B1jLtsBCWCFRoGI_Xtc7G7Or0WqgBY3ClXCCyT3ieEFm-GiS_wy9n7f8Cwj0vSXSYjWpw6Txig1TSBBaKo8vD3rhUDfn6lDNHwtckW5eUIXMXT6bqo48inm6pdkF38CYhJkzSY3tePxN9s2Glv5miDlRk3C_Nj8VCeiwhLn2-kU7YQ9Y9CR8n92_WSq_y4cCA3i8x4Ny1?></g></svg>